<svg class="fa-c-star-half" version="1.1" xmlns="http://www.w3.org/2000/svg" xmlns:xlink="http://www.w3.org/1999/xlink" x="0px" y="0px" viewBox="0 0 50 50" style="enable-background:new 0 0 50 50;" xml:space="preserve"><polygon points="25,1.33 17.31,17.91 0.12,18.41 12.56,31.54 9.62,48.67 25,40.58 "></polygon><g><path d="M25,7.28l5.42,11.69l0.65,1.4l1.55,0.04l11.61,0.34l-8.6,9.07l-0.86,0.91l0.21,1.23l2.08,12.13l-10.89-5.73L25,37.76l-1.16,0.61L12.94,44.1l2.08-12.13l0.21-1.23l-0.86-0.91l-8.6-9.07l11.61-0.34l1.55-0.04l0.65-1.4L25,7.28 M25,1.33l-7.69,16.58l-17.19,0.5l12.44,13.13L9.62,48.67L25,40.58l15.38,8.09l-2.94-17.12l12.44-13.13l-17.19-0.5L25,1.33L25,1.33z"></path></g></svg>