<svg xmlns="http://www.w3.org/2000/svg" width="110" height="100" fill="none" viewBox="0 0 110 100"><path stroke="#212529" stroke-linecap="round" stroke-linejoin="round" stroke-miterlimit="10" stroke-width="2" d="M33.282 66.207h-7.673c-1.216 0-2.155-1.002-2.023-2.14l4.402-38.34c.119-.989.991-1.727 2.049-1.727l51.86.225c1.217 0 2.155 1.002 2.023 2.14l-4.401 38.34c-.12.989-.992 1.727-2.036 1.727h-30.33"/><path stroke="#212529" stroke-linecap="round" stroke-linejoin="round" stroke-miterlimit="10" stroke-width="2" d="m97.532 66.407 5.991.025c1.082 0 1.988-.75 2.096-1.74l1.366-11.574c.054-.4-.041-.813-.257-1.163l-7.573-12.451c-.366-.613-1.069-.988-1.826-.988l-12.889-.05c-1.082 0-1.988.75-2.096 1.739l-1.406 11.987L79.53 64.18c-.135 1.15.838 2.152 2.083 2.152l2.299.012"/><path stroke="#212529" stroke-linecap="round" stroke-linejoin="round" stroke-miterlimit="10" stroke-width="2" d="m101.022 51.06-4.754-7.428c-.117-.195-.35-.31-.596-.31l-8.433-.035c-.35 0-.634.23-.686.528l-1.14 7.463c-.052.367.259.688.687.688h14.326c.518.012.855-.493.596-.907ZM95.33 70.553c2.839-2.496 3.192-6.456.789-8.845-2.403-2.389-6.651-2.302-9.49.194-2.837 2.496-3.19 6.456-.787 8.845 2.403 2.39 6.651 2.302 9.489-.194ZM44.566 70.327c2.838-2.496 3.191-6.456.788-8.845-2.402-2.389-6.65-2.302-9.489.194-2.838 2.496-3.19 6.456-.788 8.845 2.403 2.389 6.652 2.302 9.49-.194ZM24 60h-7M18 45H3M23 32H12M10 60H7"/><path stroke="#A72A2F" stroke-linecap="round" stroke-linejoin="round" stroke-miterlimit="10" stroke-width="2" d="M44.093 35.307h21.509L53.06 53.817l-8.968-18.51Z"/><path stroke="#A72A2F" stroke-linecap="round" stroke-linejoin="round" stroke-miterlimit="10" stroke-width="2" d="m44.093 35.307 10.203 5.528 11.306-5.528M53.06 53.818l1.236-12.983"/></svg>