<svg xmlns="http://www.w3.org/2000/svg" width="100" height="100" fill="none" viewBox="0 0 100 100"><path stroke="#212529" stroke-width="2" d="M73 66.012a4.759 4.759 0 0 1-4.759 4.759H32.35L17.243 83V70.77H6a5 5 0 0 1-5-5V30.028a5 5 0 0 1 5-5h17.841"/><path stroke="#A72A2F" stroke-width="2" d="M24 22a5 5 0 0 1 5-5h65a5 5 0 0 1 5 5v35.744a5 5 0 0 1-5 5h-7.798v12.229l-18.053-12.23H29a5 5 0 0 1-5-5V22Z"/><path fill="#A72A2F" d="M61.001 46.06c.023-1.326.206-2.393.548-3.202.343-.808 1.08-1.757 2.21-2.846 1.13-1.101 1.855-1.876 2.175-2.325a5.3 5.3 0 0 0 .754-1.5c.182-.55.274-1.173.274-1.87 0-1.404-.383-2.504-1.148-3.302-.753-.808-1.81-1.212-3.168-1.212-1.37 0-2.478.387-3.323 1.162-.834.764-1.262 1.802-1.285 3.116H56c.023-1.841.657-3.313 1.901-4.413C59.146 28.556 60.727 28 62.646 28c1.964 0 3.51.567 4.641 1.701C68.43 30.825 69 32.352 69 34.285c0 1.213-.28 2.353-.84 3.42-.559 1.055-1.62 2.29-3.185 3.706-1.29 1.067-1.935 2.617-1.935 4.65H61Zm-.274 5.626c0-.382.12-.702.36-.96.251-.27.6-.405 1.045-.405.434 0 .776.135 1.027.405.263.258.394.578.394.96 0 .37-.131.685-.394.943-.25.248-.593.371-1.027.371-.446 0-.794-.123-1.045-.37a1.336 1.336 0 0 1-.36-.944Z"/></svg>