<svg xmlns="http://www.w3.org/2000/svg" width="110" height="42" fill="none" viewBox="0 0 110 42"><path fill="#000" d="m11.41 10 14.7 8.1L40.808 10H11.41ZM25.215 41.569V19.86L10 11.484 25.215 41.57ZM27.003 41.569V19.86l15.215-8.376L27.003 41.57ZM48.008 19.182c-.492 0-.738.125-.738.376 0 .241.246.362.738.362h3.69c1.968 0 2.951.983 2.951 2.947 0 2.456-1.23 3.685-3.69 3.685h-6.642v-2.947h6.642c.492 0 .738-.113.738-.34 0-.264-.246-.397-.738-.397h-2.951c-2.46 0-3.69-.982-3.69-2.947 0-2.456 1.23-3.685 3.69-3.685h6.641v2.947h-6.641v-.001ZM55.388 16.234H65.72v2.948H55.388v-2.948Zm0 3.685H65.72v2.948H55.388v-2.948Zm0 6.633v-2.948H65.72v2.948H55.388ZM66.457 21.394c0-3.44 1.722-5.16 5.167-5.16 3.444 0 5.166 1.583 5.166 4.746H73.84c0-1.2-.738-1.798-2.214-1.798-1.477 0-2.214.736-2.214 2.21 0 1.475.737 2.211 2.214 2.211 1.476 0 2.214-.61 2.214-1.828h2.951c0 3.184-1.722 4.776-5.166 4.776-3.445 0-5.167-1.72-5.167-5.157ZM81.956 22.867H80.48v3.685h-2.952V16.234h6.642c2.46 0 3.69 1.23 3.69 3.685 0 1.356-.585 2.245-1.756 2.668l6.184 6.175H87.86l-5.904-5.895Zm-1.476-3.685v.736h3.69c.492 0 .738-.12.738-.361 0-.25-.246-.377-.738-.377h-3.69v.002Z"/><path fill="#000" d="M88.598 16.234H98.93v2.948H88.598v-2.948Zm0 3.685H98.93v2.948H88.598v-2.948Zm0 6.633v-2.948H98.93v2.948H88.598ZM99.668 16.234H110v2.948h-3.69v7.37h-2.952v-7.37h-3.69v-2.948ZM77.528 29.642h2.952v7.37h7.38v2.947H77.528V29.642ZM88.598 39.96V34.8c0-3.44 1.722-5.159 5.166-5.159 3.445 0 5.167 1.72 5.167 5.16v5.158h-2.952v-2.21h-4.428v2.21h-2.953Zm7.38-5.16c0-1.474-.737-2.21-2.214-2.21-1.476 0-2.214.736-2.214 2.21h4.428ZM99.668 39.96V29.641h6.642c2.459 0 3.69 1.229 3.69 3.685 0 .983-.492 1.474-1.476 1.474.983 0 1.476.491 1.476 1.474 0 2.457-1.231 3.686-3.69 3.686h-6.642v-.002Zm6.642-6.633c.491 0 .737-.123.737-.368 0-.246-.246-.369-.737-.369h-3.691v.737h3.691Zm0 3.684c.491 0 .737-.123.737-.368 0-.246-.246-.369-.737-.369h-3.691v.737h3.691ZM19.541 10.142c.603-3.609-2.111-4.245-3.544-4.112-1.01.982-5.505 4.598-7.482 8.938-1.977 4.34 4.042 6.8 5.009 3.442.773-2.686 4.334-6.631 6.017-8.268Z"/><path stroke="#BB3338" stroke-width=".547" d="M3.561 7.541C3.49 7.157 5.396 2.433 6.548 2.22c1.153-.214 1.295.555 2.69-.499 1.394-1.053 5.635 2.532 6.76 4.31m0 0c1.432-.133 4.146.503 3.543 4.112-1.683 1.637-5.244 5.582-6.017 8.268-.967 3.359-6.986.898-5.01-3.442m7.483-8.938c-1.01.982-5.505 4.598-7.482 8.938m0 0-2.079-4.78"/><circle cx="3.989" cy="9.846" r="2.462" fill="#ffff" stroke="#BB3338" stroke-width=".547" transform="rotate(-10.503 3.989 9.846)"/><path fill="#BB3338" d="M6.648 2.2C5.495 2.414 3.59 7.14 3.66 7.523c.816.113 2.533.802 2.875 2.646l2.078 4.78c.869-1.753 3.581-5.995 7.483-8.937-1.125-1.779-5.366-5.363-6.76-4.31-1.394 1.053-1.537.285-2.69.498Z"/></svg>